<mxfile host="app.diagrams.net" modified="2024-04-09T23:15:33.911Z" agent="Mozilla/5.0 (Windows NT 10.0; Win64; x64) AppleWebKit/537.36 (KHTML, like Gecko) Chrome/123.0.0.0 Safari/537.36" etag="x0e6oZAkmRgPBGKwNxJ7" version="24.2.3" type="device">
  <diagram name="Page-1" id="CtqznWPGctGRpJmIKu28">
    <mxGraphModel dx="1434" dy="780" grid="1" gridSize="10" guides="1" tooltips="1" connect="1" arrows="1" fold="1" page="1" pageScale="1" pageWidth="850" pageHeight="1100" math="0" shadow="0">
      <root>
        <mxCell id="0" />
        <mxCell id="1" parent="0" />
        <mxCell id="iZcaGn3jkGGKrtvGumhL-3" value="AWS Cloud" style="points=[[0,0],[0.25,0],[0.5,0],[0.75,0],[1,0],[1,0.25],[1,0.5],[1,0.75],[1,1],[0.75,1],[0.5,1],[0.25,1],[0,1],[0,0.75],[0,0.5],[0,0.25]];outlineConnect=0;gradientColor=none;html=1;whiteSpace=wrap;fontSize=12;fontStyle=0;container=1;pointerEvents=0;collapsible=0;recursiveResize=0;shape=mxgraph.aws4.group;grIcon=mxgraph.aws4.group_aws_cloud_alt;strokeColor=#232F3E;fillColor=none;verticalAlign=top;align=left;spacingLeft=30;fontColor=#232F3E;dashed=0;" parent="1" vertex="1">
          <mxGeometry x="10" y="110" width="710" height="410" as="geometry" />
        </mxCell>
        <mxCell id="iZcaGn3jkGGKrtvGumhL-4" value="VPC" style="points=[[0,0],[0.25,0],[0.5,0],[0.75,0],[1,0],[1,0.25],[1,0.5],[1,0.75],[1,1],[0.75,1],[0.5,1],[0.25,1],[0,1],[0,0.75],[0,0.5],[0,0.25]];outlineConnect=0;gradientColor=none;html=1;whiteSpace=wrap;fontSize=12;fontStyle=0;container=1;pointerEvents=0;collapsible=0;recursiveResize=0;shape=mxgraph.aws4.group;grIcon=mxgraph.aws4.group_vpc2;strokeColor=#8C4FFF;fillColor=none;verticalAlign=top;align=left;spacingLeft=30;fontColor=#AAB7B8;dashed=0;" parent="iZcaGn3jkGGKrtvGumhL-3" vertex="1">
          <mxGeometry x="40" y="60" width="650" height="330" as="geometry" />
        </mxCell>
        <mxCell id="1VLS5kzNKsmugrQEiSK2-2" style="edgeStyle=orthogonalEdgeStyle;rounded=0;orthogonalLoop=1;jettySize=auto;html=1;" edge="1" parent="iZcaGn3jkGGKrtvGumhL-4" source="iZcaGn3jkGGKrtvGumhL-5" target="iZcaGn3jkGGKrtvGumhL-8">
          <mxGeometry relative="1" as="geometry" />
        </mxCell>
        <mxCell id="1VLS5kzNKsmugrQEiSK2-5" style="edgeStyle=orthogonalEdgeStyle;rounded=0;orthogonalLoop=1;jettySize=auto;html=1;" edge="1" parent="iZcaGn3jkGGKrtvGumhL-4" source="iZcaGn3jkGGKrtvGumhL-5" target="iZcaGn3jkGGKrtvGumhL-9">
          <mxGeometry relative="1" as="geometry" />
        </mxCell>
        <mxCell id="iZcaGn3jkGGKrtvGumhL-5" value="Api" style="sketch=0;points=[[0,0,0],[0.25,0,0],[0.5,0,0],[0.75,0,0],[1,0,0],[0,1,0],[0.25,1,0],[0.5,1,0],[0.75,1,0],[1,1,0],[0,0.25,0],[0,0.5,0],[0,0.75,0],[1,0.25,0],[1,0.5,0],[1,0.75,0]];outlineConnect=0;fontColor=#232F3E;fillColor=#ED7100;strokeColor=#ffffff;dashed=0;verticalLabelPosition=bottom;verticalAlign=top;align=center;html=1;fontSize=12;fontStyle=0;aspect=fixed;shape=mxgraph.aws4.resourceIcon;resIcon=mxgraph.aws4.ecs;" parent="iZcaGn3jkGGKrtvGumhL-4" vertex="1">
          <mxGeometry x="160" y="90" width="58" height="58" as="geometry" />
        </mxCell>
        <mxCell id="iZcaGn3jkGGKrtvGumhL-8" value="PostgreSQL" style="sketch=0;points=[[0,0,0],[0.25,0,0],[0.5,0,0],[0.75,0,0],[1,0,0],[0,1,0],[0.25,1,0],[0.5,1,0],[0.75,1,0],[1,1,0],[0,0.25,0],[0,0.5,0],[0,0.75,0],[1,0.25,0],[1,0.5,0],[1,0.75,0]];outlineConnect=0;fontColor=#232F3E;fillColor=#C925D1;strokeColor=#ffffff;dashed=0;verticalLabelPosition=bottom;verticalAlign=top;align=center;html=1;fontSize=12;fontStyle=0;aspect=fixed;shape=mxgraph.aws4.resourceIcon;resIcon=mxgraph.aws4.rds;" parent="iZcaGn3jkGGKrtvGumhL-4" vertex="1">
          <mxGeometry x="160" y="211" width="58" height="58" as="geometry" />
        </mxCell>
        <mxCell id="iZcaGn3jkGGKrtvGumhL-9" value="sqs-delivery-order" style="sketch=0;points=[[0,0,0],[0.25,0,0],[0.5,0,0],[0.75,0,0],[1,0,0],[0,1,0],[0.25,1,0],[0.5,1,0],[0.75,1,0],[1,1,0],[0,0.25,0],[0,0.5,0],[0,0.75,0],[1,0.25,0],[1,0.5,0],[1,0.75,0]];outlineConnect=0;fontColor=#232F3E;fillColor=#E7157B;strokeColor=#ffffff;dashed=0;verticalLabelPosition=bottom;verticalAlign=top;align=center;html=1;fontSize=12;fontStyle=0;aspect=fixed;shape=mxgraph.aws4.resourceIcon;resIcon=mxgraph.aws4.sqs;" parent="iZcaGn3jkGGKrtvGumhL-4" vertex="1">
          <mxGeometry x="310" y="89" width="60" height="60" as="geometry" />
        </mxCell>
        <mxCell id="iZcaGn3jkGGKrtvGumhL-10" value="Trigger" style="sketch=0;points=[[0,0,0],[0.25,0,0],[0.5,0,0],[0.75,0,0],[1,0,0],[0,1,0],[0.25,1,0],[0.5,1,0],[0.75,1,0],[1,1,0],[0,0.25,0],[0,0.5,0],[0,0.75,0],[1,0.25,0],[1,0.5,0],[1,0.75,0]];outlineConnect=0;fontColor=#232F3E;fillColor=#E7157B;strokeColor=#ffffff;dashed=0;verticalLabelPosition=bottom;verticalAlign=top;align=center;html=1;fontSize=12;fontStyle=0;aspect=fixed;shape=mxgraph.aws4.resourceIcon;resIcon=mxgraph.aws4.sns;" parent="iZcaGn3jkGGKrtvGumhL-4" vertex="1">
          <mxGeometry x="440" y="88" width="62" height="62" as="geometry" />
        </mxCell>
        <mxCell id="iZcaGn3jkGGKrtvGumhL-11" value="lambda-dotnet-consumer-function" style="sketch=0;points=[[0,0,0],[0.25,0,0],[0.5,0,0],[0.75,0,0],[1,0,0],[0,1,0],[0.25,1,0],[0.5,1,0],[0.75,1,0],[1,1,0],[0,0.25,0],[0,0.5,0],[0,0.75,0],[1,0.25,0],[1,0.5,0],[1,0.75,0]];outlineConnect=0;fontColor=#232F3E;fillColor=#ED7100;strokeColor=#ffffff;dashed=0;verticalLabelPosition=bottom;verticalAlign=top;align=center;html=1;fontSize=12;fontStyle=0;aspect=fixed;shape=mxgraph.aws4.resourceIcon;resIcon=mxgraph.aws4.lambda;" parent="iZcaGn3jkGGKrtvGumhL-4" vertex="1">
          <mxGeometry x="310" y="210" width="60" height="60" as="geometry" />
        </mxCell>
        <mxCell id="1VLS5kzNKsmugrQEiSK2-1" value="Amazon API Gateway" style="sketch=0;outlineConnect=0;fontColor=#232F3E;gradientColor=none;strokeColor=#ffffff;fillColor=#232F3E;dashed=0;verticalLabelPosition=middle;verticalAlign=bottom;align=center;html=1;whiteSpace=wrap;fontSize=10;fontStyle=1;spacing=3;shape=mxgraph.aws4.productIcon;prIcon=mxgraph.aws4.api_gateway;" vertex="1" parent="iZcaGn3jkGGKrtvGumhL-4">
          <mxGeometry x="40" y="90" width="60" height="78" as="geometry" />
        </mxCell>
        <mxCell id="1VLS5kzNKsmugrQEiSK2-4" style="edgeStyle=orthogonalEdgeStyle;rounded=0;orthogonalLoop=1;jettySize=auto;html=1;entryX=0;entryY=0.5;entryDx=0;entryDy=0;entryPerimeter=0;startArrow=classicThin;startFill=1;" edge="1" parent="iZcaGn3jkGGKrtvGumhL-4" source="1VLS5kzNKsmugrQEiSK2-1" target="iZcaGn3jkGGKrtvGumhL-5">
          <mxGeometry relative="1" as="geometry">
            <Array as="points">
              <mxPoint x="160" y="120" />
            </Array>
          </mxGeometry>
        </mxCell>
        <mxCell id="1VLS5kzNKsmugrQEiSK2-6" style="edgeStyle=orthogonalEdgeStyle;rounded=0;orthogonalLoop=1;jettySize=auto;html=1;entryX=0;entryY=0.5;entryDx=0;entryDy=0;entryPerimeter=0;dashed=1;startArrow=oval;startFill=1;endArrow=oval;endFill=1;" edge="1" parent="iZcaGn3jkGGKrtvGumhL-4" source="iZcaGn3jkGGKrtvGumhL-9" target="iZcaGn3jkGGKrtvGumhL-10">
          <mxGeometry relative="1" as="geometry" />
        </mxCell>
        <mxCell id="1VLS5kzNKsmugrQEiSK2-8" style="edgeStyle=orthogonalEdgeStyle;rounded=0;orthogonalLoop=1;jettySize=auto;html=1;entryX=1;entryY=0.5;entryDx=0;entryDy=0;entryPerimeter=0;" edge="1" parent="iZcaGn3jkGGKrtvGumhL-4" source="iZcaGn3jkGGKrtvGumhL-10" target="iZcaGn3jkGGKrtvGumhL-11">
          <mxGeometry relative="1" as="geometry">
            <Array as="points">
              <mxPoint x="471" y="240" />
            </Array>
          </mxGeometry>
        </mxCell>
        <mxCell id="1VLS5kzNKsmugrQEiSK2-9" style="edgeStyle=orthogonalEdgeStyle;rounded=0;orthogonalLoop=1;jettySize=auto;html=1;entryX=1;entryY=0.5;entryDx=0;entryDy=0;entryPerimeter=0;" edge="1" parent="iZcaGn3jkGGKrtvGumhL-4" source="iZcaGn3jkGGKrtvGumhL-11" target="iZcaGn3jkGGKrtvGumhL-8">
          <mxGeometry relative="1" as="geometry" />
        </mxCell>
        <mxCell id="1VLS5kzNKsmugrQEiSK2-10" value="us-east-1" style="points=[[0,0],[0.25,0],[0.5,0],[0.75,0],[1,0],[1,0.25],[1,0.5],[1,0.75],[1,1],[0.75,1],[0.5,1],[0.25,1],[0,1],[0,0.75],[0,0.5],[0,0.25]];outlineConnect=0;gradientColor=none;html=1;whiteSpace=wrap;fontSize=12;fontStyle=0;container=1;pointerEvents=0;collapsible=0;recursiveResize=0;shape=mxgraph.aws4.group;grIcon=mxgraph.aws4.group_region;strokeColor=#00A4A6;fillColor=none;verticalAlign=top;align=left;spacingLeft=30;fontColor=#147EBA;dashed=1;" vertex="1" parent="iZcaGn3jkGGKrtvGumhL-3">
          <mxGeometry x="20" y="30" width="680" height="370" as="geometry" />
        </mxCell>
        <mxCell id="1VLS5kzNKsmugrQEiSK2-11" value="storage-cnh-images" style="sketch=0;points=[[0,0,0],[0.25,0,0],[0.5,0,0],[0.75,0,0],[1,0,0],[0,1,0],[0.25,1,0],[0.5,1,0],[0.75,1,0],[1,1,0],[0,0.25,0],[0,0.5,0],[0,0.75,0],[1,0.25,0],[1,0.5,0],[1,0.75,0]];outlineConnect=0;fontColor=#232F3E;fillColor=#7AA116;strokeColor=#ffffff;dashed=0;verticalLabelPosition=bottom;verticalAlign=top;align=center;html=1;fontSize=12;fontStyle=0;aspect=fixed;shape=mxgraph.aws4.resourceIcon;resIcon=mxgraph.aws4.s3;" vertex="1" parent="1VLS5kzNKsmugrQEiSK2-10">
          <mxGeometry x="570" y="210" width="65" height="65" as="geometry" />
        </mxCell>
        <mxCell id="1VLS5kzNKsmugrQEiSK2-12" style="edgeStyle=orthogonalEdgeStyle;rounded=0;orthogonalLoop=1;jettySize=auto;html=1;entryX=0.5;entryY=0;entryDx=0;entryDy=0;entryPerimeter=0;" edge="1" parent="iZcaGn3jkGGKrtvGumhL-3" source="iZcaGn3jkGGKrtvGumhL-5" target="1VLS5kzNKsmugrQEiSK2-11">
          <mxGeometry relative="1" as="geometry">
            <Array as="points">
              <mxPoint x="229" y="100" />
              <mxPoint x="623" y="100" />
            </Array>
          </mxGeometry>
        </mxCell>
      </root>
    </mxGraphModel>
  </diagram>
</mxfile>
